<?xml version="1.0" encoding="UTF-8"?>
<svg xmlns="http://www.w3.org/2000/svg" viewBox="0 0 389.273 389.822">
    <defs>
        <linearGradient id="mainGradient" gradientUnits="userSpaceOnUse" x1="300" y1="0" x2="280" y2="400">
            <stop offset="0%" style="stop-color: rgb(114, 35, 118);" />
            <stop offset="100%" style="stop-color: rgb(0, 112, 185);" />
        </linearGradient>
    </defs>
    <g transform="matrix(1, 0, 0, 1, -0.707509, -1.575008)">
        <title>SKT Logo</title>
        <ellipse style="fill: rgb(9, 26, 73);" cx="195.344" cy="196.486" rx="194.595" ry="194.895" />
        <g>
            <title>SKT Paths</title>
            <path style="fill: url(#mainGradient);" d="M 152.372 110.185 C 145.015 117.808 138.197 126.595 132.104 135.55 C 126.012 144.504 120.69 154.16 116.237 162.452 C 111.784 170.744 108.155 178.607 105.716 184.242 C 103.277 189.877 101.984 192.748 101.934 193.732 C 101.497 195.794 101.427 197.476 101.68 198.804 C 101.932 200.133 102.507 201.106 103.359 201.749 C 104.211 202.392 105.34 202.704 106.702 202.71 C 108.063 202.715 109.656 202.413 111.436 201.828 C 112.779 201.387 114.975 200.11 117.499 198.479 C 120.023 196.848 122.875 194.863 125.531 193.007 C 128.187 191.152 130.646 189.425 132.383 188.31 C 134.121 187.195 135.136 186.691 134.906 187.281 C 134.831 188.396 134.731 190.528 134.621 193.097 C 134.512 195.666 134.394 198.672 134.286 201.536 C 134.177 204.4 134.078 207.121 134.007 209.119 C 133.936 211.118 133.892 212.394 133.894 212.367 C 133.891 212.372 132.591 212.94 130.64 213.777 C 128.69 214.615 126.09 215.721 123.49 216.802 C 120.889 217.884 118.288 218.939 116.336 219.675 C 114.383 220.41 113.079 220.825 113.072 220.625 C 113.065 220.425 113.108 219.755 113.177 218.851 C 113.247 217.947 113.343 216.81 113.442 215.677 C 113.541 214.544 113.644 213.415 113.726 212.527 C 113.809 211.639 113.873 210.993 113.893 210.824 C 113.913 210.656 112.726 211.08 110.94 211.828 C 109.155 212.576 106.772 213.647 104.4 214.773 C 102.028 215.899 99.668 217.08 97.93 218.046 C 96.192 219.012 95.075 219.764 95.19 220.032 L 94.843 223.297 L 94.495 226.561 L 94.148 229.825 L 93.801 233.089 L 98.802 234.097 L 103.802 235.104 L 108.803 236.111 L 113.803 237.118 C 115.624 235.951 117.735 234.717 120.17 233.492 C 122.604 232.267 125.363 231.051 128.478 229.919 C 131.594 228.788 135.066 227.742 138.93 226.856 C 142.793 225.97 147.048 225.245 151.726 224.756 C 151.831 225.335 151.921 222.402 151.98 217.591 C 152.039 212.78 152.069 206.09 152.053 199.155 C 152.038 192.22 151.978 185.04 151.858 179.247 C 151.739 173.454 151.561 169.049 151.309 167.663 C 150.456 163.805 147.956 162.775 144.694 163.322 C 141.432 163.869 137.409 165.995 133.509 168.448 C 129.609 170.902 125.832 173.683 123.063 175.543 C 120.294 177.403 118.533 178.341 118.665 177.108 C 118.665 177.108 121.823 167.714 125.597 161.068 C 129.371 154.422 132.745 147.883 134.639 145.147 C 136.533 142.411 135.732 150.22 136.005 150.643 C 136.278 151.066 149.81 135.2 152.662 132.44 L 152.59 126.877 L 152.517 121.313 L 152.445 115.749 L 152.372 110.185" />
            <path style="fill: url(#mainGradient);" d="M 156.28 105.824 C 156.28 105.193 173.304 88.247 173.304 89.075 C 173.304 89.075 173.167 152.142 173.167 146.187 C 173.739 147.332 192.25 105.961 192.25 105.961 L 192.662 75.811 C 190.799 75.811 207.855 62.082 209.274 62.082 L 209.136 108.486 L 192.16 147.444 C 192.191 147.438 217.956 244.898 216.323 245.225 C 216.664 245.225 197.416 235.615 196.69 235.615 C 196.69 235.615 180.49 167.625 180.49 169.716 C 180.585 169.337 173.744 181.463 173.489 182.484 C 173.121 182.484 173.214 227.377 173.214 227.377 C 173.263 226.667 155.861 224.262 155.504 225.043 L 156.28 105.824 Z" />
            <path style="fill: url(#mainGradient);" d="M 213.902 59.918 C 216.49 56.909 272.176 30.692 267.369 37.113 C 269.943 33.616 267.122 54.911 266.857 54.461 C 268.776 54.845 248.634 63.025 248.619 63.022 C 246.608 66.715 245.727 237.741 247.006 230.965 C 247.355 230.667 229.761 236.632 228.799 237.995 C 227.249 238.735 227.963 77.665 230.605 71.316 C 230.605 70.102 214.306 79.66 214.306 78.958 L 213.902 59.918 Z"></path>
            <path style="fill: url(#mainGradient);" d="M 22.342 261.401 C 19.891 261.401 40.296 246.607 58.625 242.487 C 79.31 237.837 98.868 239.083 118.157 249.183 C 132.375 256.628 160.45 271.922 176.445 279.475 C 192.44 287.028 219.758 290.505 219.758 290.505 C 201.41 297.868 183.827 302.329 152.687 293.036 C 127.16 285.418 100.336 269.545 72.716 261.676 C 46.514 254.211 22.764 261.401 22.342 261.401 Z" />
            <path style="fill: url(#mainGradient);" d="M 127.132 240.411 C 127.132 240.411 152.004 230.153 175.28 238.031 C 196.085 245.072 211.457 254.817 236.61 267.797 C 251.069 275.258 274.203 275.428 274.203 275.428 C 274.203 275.428 260.834 284.533 241.222 284.593 C 223.353 284.648 205.575 277.364 191.418 269.225 C 177.263 261.087 163.816 252.382 148.791 245.99 C 138.784 241.733 127.132 240.411 127.132 240.411 Z" />
            <path style="fill: url(#mainGradient);" d="M 226.892 250.363 C 226.892 250.363 244.321 238.247 261.59 238.959 C 279.238 239.687 296.25 246.97 312.289 254.367 C 324.992 260.225 346.865 256.065 346.865 256.065 C 346.865 256.065 333.505 269.364 315.322 269.289 C 301.253 269.231 285.529 263.642 271.89 256.915 C 263.152 252.606 257.436 251.259 245.14 249.878 C 238.689 249.153 226.892 250.363 226.892 250.363 Z" />
        </g>
    </g>
</svg>
